<svg width="1000" height="1000" viewBox="0 0 1000 1000" fill="none" xmlns="http://www.w3.org/2000/svg">
<g clip-path="url(#clip0_102_18581)">
<path opacity="0.55" d="M490.5 667C640.445 667 762 660.583 762 652.667C762 644.751 640.445 638.333 490.5 638.333C340.555 638.333 219 644.751 219 652.667C219 660.583 340.555 667 490.5 667Z" fill="#0A2656"/>
<path opacity="0.55" d="M486.667 677.167C552.757 677.167 606.333 672.316 606.333 666.333C606.333 660.35 552.757 655.5 486.667 655.5C420.577 655.5 367 660.35 367 666.333C367 672.316 420.577 677.167 486.667 677.167Z" fill="#0A2656"/>
<path d="M559.167 716.333C572.698 716.333 583.667 714.319 583.667 711.834C583.667 709.348 572.698 707.333 559.167 707.333C545.636 707.333 534.667 709.348 534.667 711.834C534.667 714.319 545.636 716.333 559.167 716.333Z" fill="#253F61"/>
<path opacity="0.55" d="M398.833 762.5C463.359 762.5 515.667 756.083 515.667 748.167C515.667 740.251 463.359 733.833 398.833 733.833C334.308 733.833 282 740.251 282 748.167C282 756.083 334.308 762.5 398.833 762.5Z" fill="#0A2656"/>
<path opacity="0.55" d="M755.167 733.5C791.157 733.5 820.333 728.053 820.333 721.333C820.333 714.614 791.157 709.167 755.167 709.167C719.176 709.167 690 714.614 690 721.333C690 728.053 719.176 733.5 755.167 733.5Z" fill="#0A2656"/>
<path d="M509.333 309.333C509.333 309.333 537.166 313.833 552.5 350.167C567.833 386.5 559.166 407.667 533.666 381.667C508.166 355.667 510.166 323.167 509.333 309.333Z" fill="#CE1E7F"/>
<path d="M638.166 309.5C638.166 309.5 668 318.5 679.5 356.167C691.666 396.167 664.5 417.333 646.833 385.333C631.833 358 636.166 323.333 638.166 309.5Z" fill="#CE1E7F"/>
<path d="M492.333 481.833C488.833 482.5 485.5 480 485 476.5C481.333 450.5 470.667 353.167 510.833 291.5C532.5 258.167 555 240.167 577.5 237.667C592.5 236.167 607.333 241.833 619.333 253.833C633.833 268.333 642.167 297.167 645.333 310C646.167 313.5 644 317 640.5 317.667C637.167 318.333 634 316.333 633.167 313C630.167 301.333 622.667 274.833 610.5 262.667C604 256.167 593.167 248.667 578.833 250.167C560.5 252 540.667 268.667 521.333 298.333C484 355.667 494 450.167 497.333 474.833C498 478.167 495.667 481.167 492.333 481.833Z" fill="#162042"/>
<path d="M443.333 397.333C450 406.166 474.833 396.833 486 373C497.167 349.167 499 322.667 499 322.667C499 322.667 477 327.166 457.167 353.166C437.5 379.333 437.833 390.166 443.333 397.333Z" fill="#AC135D"/>
<path d="M639.333 309.5C639.333 309.5 654.833 334 639.666 367.5C623.666 402.833 591.833 401 599 367.833C605.333 339.667 629.5 318 639.333 309.5Z" fill="#AC135D"/>
<path d="M639.167 309.667C639.167 309.667 666.667 300.5 695.5 323C726.167 346.833 716.667 377.5 686.167 362.5C660.334 350 645.167 321.333 639.167 309.667Z" fill="#AC135D"/>
<path d="M756.667 627L680.5 656.333C680.5 656.333 660.5 647.667 645.667 635.5C637.334 628.667 630.834 620.667 630.167 612.5L722.5 570.5C722.5 570.5 731.5 574 741.167 588.667C742.667 591 744.167 593.5 745.834 596.333C757.167 617.5 756.667 627 756.667 627Z" fill="#2B3D5F"/>
<path d="M741.167 588.833L645.667 635.667C637.334 628.833 630.834 620.833 630.167 612.667L722.5 570.667C722.5 570.667 731.5 574.333 741.167 588.833Z" fill="#2A50CC"/>
<path d="M730.5 656.166C730.5 656.666 730.5 657 730.5 657C730.5 657 727 657.333 720.667 657.666C703.167 658.833 663.5 661 616.334 661.5C556 662 428.834 662.666 403 659.666C394.5 658.666 339.167 655.5 305.334 648.166C289.167 644.666 277.834 640.166 279 634.5C280.834 625.833 292 619 302.667 614.5C313.334 610 323.667 607.5 323.834 607.5C323.667 607.333 301.334 585.833 309.834 557.666C318.334 529.333 347.5 533 347.5 533C347.5 533 357 481.833 400.5 470.5C444 459.166 463.834 489 463.834 489C463.834 489 505.667 442.666 560.834 459.333C616.167 476 615.667 524.5 615.667 524.5C615.667 524.5 641 522.5 649.667 539.333C658.334 556.166 649 575 649 575C649 575 672.667 573.5 679.5 599.333C685.667 622.166 675.667 632.333 673.334 634.333C675.667 632.5 687.334 625.333 708.167 631.666C729.167 637.833 730.5 652.5 730.5 656.166Z" fill="#E8A03F"/>
<path d="M720.667 658.5C703.167 659.5 663.501 661.333 616.334 661.666C556.001 662.166 428.834 662.666 403.001 660.166C394.501 659.333 339.167 656.666 305.334 650.5C305.334 649.833 305.334 649.166 305.334 648.5C306.667 625.5 336.834 625.5 336.834 625.5C336.834 625.5 314.834 608.5 325.167 589.666C336.834 568.5 366.001 568.5 366.001 568.5C366.001 568.5 361.334 546 389.167 531.833C425.501 513.333 465.334 538.333 465.334 538.333C465.334 538.333 501.334 513.666 550.667 521.666C600.001 529.666 600.167 560.5 600.167 560.5C600.167 560.5 617.501 559.333 624.834 571.833C634.334 587.666 621.667 602.5 621.667 602.5C621.667 602.5 642.334 597.666 654.001 614.666C665.501 631.333 656.167 649.166 655.834 649.833C656.501 649.5 670.834 644.333 694.834 647.5C713.167 649.833 718.834 655.5 720.667 658.5Z" fill="#CA6D21"/>
<path d="M582.667 575.667C582.667 575.667 575.833 594.833 580 601.5C584.167 608 596.167 597.5 582.667 575.667Z" fill="#2A2C38"/>
<path d="M447.167 579.667C454.991 579.667 461.333 573.324 461.333 565.5C461.333 557.676 454.991 551.333 447.167 551.333C439.343 551.333 433 557.676 433 565.5C433 573.324 439.343 579.667 447.167 579.667Z" fill="#162042"/>
<path d="M564.334 579.667C572.158 579.667 578.5 573.324 578.5 565.5C578.5 557.676 572.158 551.333 564.334 551.333C556.51 551.333 550.167 557.676 550.167 565.5C550.167 573.324 556.51 579.667 564.334 579.667Z" fill="#162042"/>
<path d="M417.5 532.333C416.166 525.833 432.333 517.667 440.666 511.667C449 505.667 461.5 503.333 468 514.333C474.666 525.333 452 535.833 443.666 537.667C435.5 539.333 419 539.5 417.5 532.333Z" fill="#162042"/>
<path d="M585.166 529C585.666 523 570.666 516.667 562.833 511.833C555 506.833 543.666 505.5 539 515.833C534.166 526.167 555 534.167 562.5 535.333C570 536.333 584.5 535.667 585.166 529Z" fill="#162042"/>
<path d="M475.5 753.5C475 753.667 474.333 753.667 473.833 753.833C456.333 756 389 755.167 357.833 751.167C347.333 749.833 338.667 747.833 331.833 745.5C313.5 739.167 308.833 729.5 319.667 718.667C334.5 703.833 369.5 707.5 369.5 707.5C369.5 707.5 387 678.667 426.5 677.833C459.833 677 465.667 719.667 465.667 719.667C465.667 719.667 481.333 715.667 490 728.167C498.5 740.667 491.833 750.833 475.5 753.5Z" fill="#E8A03F"/>
<path d="M475.5 753.5C475 753.667 474.333 753.667 473.833 753.833C456.333 756 389 755.167 357.833 751.167C347.333 749.833 338.666 747.833 331.833 745.5C331.166 745.167 330.666 744.833 330 744.333C330 744.333 318.333 732.667 338.166 724.5C358 716.333 380.333 725 380.333 725C380.333 725 389.333 695.333 422.5 695.333C455.833 695.333 450.833 731.667 450.833 731.667C450.833 731.667 470.333 723.333 480 736.667C484 741.833 483 748.667 475.5 753.5Z" fill="#CA6D21"/>
<path d="M575.833 710.667C575.5 710.833 575.333 711 575 711.167C569 714.167 551.167 714.5 543.333 710.667C540.667 709.333 539.167 707.667 539.5 705.333C541 695.833 561 697.5 561 697.5C575.333 697.833 582.5 706.167 575.833 710.667Z" fill="#E8A03F"/>
<path d="M575 711.167C569 714.167 551.166 714.5 543.333 710.667C542.833 710.167 542.666 709.5 542.833 708.667C544.166 701.833 561 703 561 703C571.333 703.333 577.166 707.833 575 711.167Z" fill="#CA6D21"/>
<path d="M799.5 717.167C796.667 719.333 793.167 721 788.833 722.333C773.167 727 750.5 726.167 736.167 723.833C729.167 722.667 724.167 721.167 722.833 719.833C719 715.667 715.5 702.334 725 697C734.5 691.667 742.833 699.334 742.833 699.334C753 680.5 777.333 662.667 799.167 682.167C810.167 691.833 811.833 707.833 799.5 717.167Z" fill="#E8A03F"/>
<path d="M799.5 717.167C796.666 719.333 793.166 721 788.833 722.333C773.166 727 750.5 726.167 736.166 723.833C729.166 720.5 722 712.333 729.666 706.5C737.166 700.667 747.666 710.167 747.666 710.167C747.666 710.167 772.166 687 791.333 694.167C805 699.333 801 713 799.5 717.167Z" fill="#CA6D21"/>
<path d="M185.667 405.667C178 402.333 179 391.333 187 389.333C201.333 385.833 222.167 381.5 249.833 378.167C275.333 375.167 293 374 304 373.667C311.833 373.5 318 380.167 317 387.833L313.333 417L196.5 410.167L185.667 405.667Z" fill="#0C336A"/>
<path d="M390.333 535.166L385 576.333L375.667 649.5L374.667 657.5C374.667 657.5 346.833 661.166 316.833 660.5C313.833 660.5 311 660.333 308 660C281.333 657.833 257 649 257 649L229.833 561.5L216.333 517.833L198.333 459.5L180 401.333C178.167 395.166 183.333 389.166 189.667 390.166C201.833 392.166 221.167 394.666 244 396C254.333 396.666 265.167 396.833 276.5 396.833C310.333 396.5 333.333 395.166 345.833 394.166C351.833 393.666 356.833 398.833 356.333 404.833L350.833 467L348.333 494L390.333 535.166Z" fill="#1E3CB0"/>
<path d="M307.833 660C281.167 657.833 256.833 649 256.833 649L229.667 561.5L216.167 517.833L198.167 459.5L180 401.333C178.167 395.166 183.333 389.166 189.667 390.166C201.833 392.166 221.167 394.666 244 396L307.833 660Z" fill="#3D6AD9"/>
<path d="M356.333 404.833L350.833 467C332.167 468.333 307.833 469.5 281 469.166C274.333 469.166 267.667 468.833 261.5 468.5C234.667 467 212.667 462.833 198 459.333L180 401.333C178.167 395.166 183.333 389.166 189.667 390.166C191.833 390.5 194.167 390.833 196.667 391.166C198.5 391.5 200.5 391.666 202.667 392C202.833 392 203 392 203.167 392C204.5 392.166 205.667 392.333 207 392.5C207.833 392.666 208.667 392.666 209.5 392.833C211 393 212.5 393.166 214 393.333C217.167 393.666 220.667 394 224.167 394.333C226.667 394.5 229.167 394.833 231.667 395H232.333C234.167 395.166 236.167 395.333 238 395.5C238.333 395.5 238.5 395.5 238.833 395.5C239.5 395.5 240.167 395.666 241 395.666C242.167 395.666 243.167 395.833 244.333 395.833C254.667 396.5 265.5 396.666 276.833 396.666C310.667 396.333 333.667 395 346.167 394C352 393.666 357 398.833 356.333 404.833Z" fill="#0A2656"/>
<path d="M385 576.333L375.667 649.5C361.167 622.5 332 576.5 294 560.333C290.167 558.667 286.5 557.333 282.834 556.333C260 549.833 242.167 554.5 229.667 561.333L216.167 517.667C228.667 513.333 248 508.167 271 507C275.5 506.833 280.167 506.667 285 506.833C326.5 508.333 365.667 551.166 385 576.333Z" fill="#0A2656"/>
<path d="M261.5 468.5C234.667 467 212.667 462.833 198 459.333L180 401.333C178.167 395.166 183.333 389.166 189.667 390.166C191.833 390.5 194.167 390.833 196.667 391.166C198.5 391.5 200.5 391.666 202.667 392C202.833 392 203 392 203.167 392C204.5 392.166 205.667 392.333 207 392.5C207.833 392.666 208.667 392.666 209.5 392.833C211 393 212.5 393.166 214 393.333C217.167 393.666 220.667 394 224.167 394.333C226.667 394.5 229.167 394.833 231.667 395H232.333C234.167 395.166 236.167 395.333 238 395.5C238.333 395.5 238.5 395.5 238.833 395.5C239.5 395.5 240.167 395.666 241 395.666C242.167 395.666 243.167 395.833 244.333 395.833L261.5 468.5Z" fill="#0D3C75"/>
<path d="M282.834 556.333C260 549.833 242.167 554.5 229.667 561.333L216.167 517.667C228.667 513.333 248 508.167 271 507L282.834 556.333Z" fill="#0D3C75"/>
<path d="M588.667 665L504.167 676.833L485.667 679.5L392.167 659.167L432.334 633.167L473 606.833C481.834 601.167 493.167 601.167 501.834 607L588.667 665Z" fill="#1E3CB0"/>
<path d="M504.167 676.833L485.667 679.5L392.167 659.167L432.334 633.167C446 635.5 464.667 640.833 481.5 653.833C491.334 661.166 498.667 669.333 504.167 676.833Z" fill="#0A2656"/>
</g>
<defs>
<clipPath id="clip0_102_18581">
<rect width="1000" height="1000" rx="50" fill="white"/>
</clipPath>
</defs>
</svg>
