<svg xmlns="http://www.w3.org/2000/svg" fill="none" viewBox="1.17 7.85 71.13 63.18">
<path d="M21.8089 65.4358C24.3986 65.9327 26.8855 66.769 29.2042 67.9225C32.8509 69.7219 36.8803 70.7648 41.0547 70.9898C45.2292 71.2148 49.4645 70.6175 53.5107 69.233C57.0466 68.0189 60.0049 66.2563 62.9805 63.9578C60.8245 65.6448 58.5217 66.4815 55.862 66.3621C53.2022 66.2429 50.7552 65.1421 49.0112 63.2802C45.0717 59.3771 40.0209 56.6955 34.4228 55.5351C28.8248 54.3744 22.8999 54.7808 17.3101 56.7083C10.9194 58.914 5.27118 62.9912 1.17241 68.3574C7.66825 65.1368 14.9482 64.1061 21.8089 65.4358Z" fill="white"/>
<path d="M23.3278 18.4769C20.4317 20.469 18.5305 22.5507 16.5 25.5C17.9714 23.3506 19.561 22.3463 22.0708 21.8814C24.5807 21.4163 27.2097 21.9704 29.4393 23.4339C34.366 26.4699 39.93 28.0415 45.5117 27.974C51.0933 27.9062 56.4733 26.2019 61.0526 23.0508C66.2923 19.449 70.2309 14.1265 72.2999 7.85125C67.2633 12.4953 60.7913 15.1077 53.9546 15.2559C51.3692 15.3006 48.7733 14.9841 46.234 14.3149C42.2643 13.3143 38.1825 13.1552 34.23 13.8469C30.2776 14.5387 26.5348 16.0673 23.2229 18.3425L23.3278 18.4769Z" fill="white"/>
<path d="M16.4999 25C17.0697 27.3928 18.7653 29.5363 20.9028 30.9844C23.04 32.4325 25.6525 33.0871 28.2159 32.8171C33.8165 32.4035 39.4854 33.4664 44.5892 35.8868C49.6931 38.3072 54.0306 41.99 57.1173 46.5234C60.6319 51.7103 61 54.5 62.5 64C60.5 54.5 54.215 52.5283 48 49.5C45.6627 48.3711 43.0041 47.9238 40.4636 47.3609C36.4739 46.4954 32.6806 44.8935 29.3073 42.6499C25.9343 40.4063 23.0496 37.5664 20.8238 34.2978C18.8775 31.4308 17.3096 28.2842 16.4999 25Z" fill="white"/>
</svg>