<svg width="128" height="128" viewBox="0 0 128 128" fill="none" xmlns="http://www.w3.org/2000/svg">
<path d="M38.8897 25.0301C34.0095 27.7288 30.806 30.5488 27.3844 34.5442C29.8639 31.6325 32.5423 30.2719 36.7715 29.6421C41.0008 29.012 45.4308 29.7627 49.1878 31.7453C57.4897 35.8581 66.8654 37.9871 76.2708 37.8956C85.6761 37.8038 94.7417 35.4951 102.458 31.2263C111.287 26.3471 117.924 19.1368 121.41 10.6359C112.924 16.9271 102.018 20.4661 90.4975 20.6668C86.1411 20.7273 81.7668 20.2986 77.488 19.392C70.7988 18.0365 63.9206 17.821 57.2605 18.7581C50.6004 19.6952 44.2936 21.766 38.7128 24.8482L38.8897 25.0301Z" fill="black"/>
<path d="M27.3842 37.8668C28.3443 41.1083 31.2015 44.0121 34.8033 45.9737C38.4047 47.9355 42.8068 48.8223 47.1264 48.4564C56.5637 47.8962 66.1162 49.3361 74.7163 52.6149C83.3166 55.8938 90.6257 60.8827 95.8269 67.0241C101.749 74.0506 102.369 77.8297 104.897 90.6991C101.527 77.8297 90.9363 75.1588 80.4637 71.0564C76.5253 69.527 72.0454 68.9212 67.7644 68.1585C61.0415 66.986 54.6496 64.816 48.9655 61.7768C43.2817 58.7373 38.4208 54.8902 34.6702 50.4623C31.3905 46.5784 28.7487 42.3159 27.3842 37.8668Z" fill="black"/>
<path d="M36.3303 93.6441C40.694 94.3173 44.8846 95.4502 48.7916 97.0129C54.9366 99.4504 61.7264 100.863 68.7605 101.168C75.7947 101.473 82.9314 100.664 89.7497 98.7882C95.7078 97.1434 100.693 94.7557 105.707 91.642C102.074 93.9273 98.1935 95.0608 93.7117 94.899C89.2298 94.7375 85.1063 93.2463 82.1677 90.724C75.5294 85.4366 67.0185 81.8039 57.5854 80.2319C48.1524 78.6596 38.1686 79.2101 28.7495 81.8212C17.9807 84.8093 8.46319 90.3326 1.55653 97.6019C12.5024 93.2392 24.7696 91.8428 36.3303 93.6441Z" fill="black"/>
</svg>
